#filter dumbComments emptyLines substitution
# This Source Code Form is subject to the terms of the Mozilla Public
# License, v. 2.0. If a copy of the MPL was not distributed with this
# file, You can obtain one at http://mozilla.org/MPL/2.0/.
<svg viewBox="0 0 16 16" fill="currentColor" id="svg2" xmlns="http://www.w3.org/2000/svg" xmlns:svg="http://www.w3.org/2000/svg" xmlns:xlink="http://www.w3.org/1999/xlink" fill-opacity="context-fill-opacity"><defs id="defs1"><mask id="arrow-cutout"><path fill="white" id="rect1" d="M0 0H16V16H0z"/><path fill="black" d="m8.354 10.854l2.5-2.5a.5.5 0 0 0 0-.708l-2.5-2.5a.5.5 0 0 0-.708.708L9.793 7.5H5.5a.5.5 0 0 0 0 1h4.293l-1.647 1.646a.5.5 0 1 0 .708.708z" id="path1"/></mask></defs><path id="path2" mask="url(#arrow-cutout)" d="M 2,3.5 A 1.5,1.5 0 0 1 3.5,2 h 9 A 1.5,1.5 0 0 1 14,3.5 v 9 A 1.5,1.5 0 0 1 12.5,14 h -9 A 1.5,1.5 0 0 1 2,12.5 Z"/></svg>