#filter dumbComments emptyLines substitution
# This Source Code Form is subject to the terms of the Mozilla Public
# License, v. 2.0. If a copy of the MPL was not distributed with this
# file, You can obtain one at http://mozilla.org/MPL/2.0/.
<svg height="18" width="18" viewBox="0 0 18 18" id="svg2" fill="context-fill" fill-opacity="context-fill-opacity" xmlns="http://www.w3.org/2000/svg" xmlns:svg="http://www.w3.org/2000/svg"><g stroke-linecap="round" stroke-width="1.5" fill="none" stroke="context-fill" stroke-opacity="context-fill-opacity" stroke-linejoin="round" class="nc-icon-wrapper" id="g2"><path id="circle2" style="fill:context-fill;stroke:none" d="M 7.5,5.25 A 0.75,0.75 0 0 1 6.75,6 0.75,0.75 0 0 1 6,5.25 0.75,0.75 0 0 1 6.75,4.5 0.75,0.75 0 0 1 7.5,5.25 Z M 5,5.25 A 0.75,0.75 0 0 1 4.25,6 0.75,0.75 0 0 1 3.5,5.25 0.75,0.75 0 0 1 4.25,4.5 0.75,0.75 0 0 1 5,5.25 Z m 9.25,10 H 3.75 c -1.108,0 -2,-0.892 -2,-2 v -8.5 c 0,-1.108 0.892,-2 2,-2 h 10.5 c 1.108,0 2,0.892 2,2 v 8.5 c 0,1.108 -0.892,2 -2,2 z"/></g></svg>