#filter dumbComments emptyLines substitution
# This Source Code Form is subject to the terms of the Mozilla Public
# License, v. 2.0. If a copy of the MPL was not distributed with this
# file, You can obtain one at http://mozilla.org/MPL/2.0/.
<svg height="18" width="18" viewBox="0 0 18 18" id="svg3" fill="context-fill" fill-opacity="context-fill-opacity" xmlns="http://www.w3.org/2000/svg" xmlns:svg="http://www.w3.org/2000/svg"><g stroke-linecap="round" stroke-width="1.5" fill="none" stroke="context-fill" stroke-opacity="context-fill-opacity" stroke-linejoin="round" class="nc-icon-wrapper" id="g3"><path id="path3" d="m 12.25,9.75 v 5.5 c 0,0.552 -0.448,1 -1,1 h -4.5 c -0.552,0 -1,-0.448 -1,-1 v -5.5 z m -6.5,3.5 h -1.5 c -1.105,0 -2,-0.895 -2,-2 v -4 c 0,-1.105 0.895,-2 2,-2 h 9.5 c 1.105,0 2,0.895 2,2 v 4 c 0,1.105 -0.895,2 -2,2 h -1.5 m -6.5,-8 v -2.5 c 0,-0.552 0.448,-1 1,-1 h 4.5 c 0.552,0 1,0.448 1,1 v 2.5"/></g></svg>